<?xml version="1.0" encoding="utf-8"?>
<!-- Generator: Adobe Illustrator 28.0.0, SVG Export Plug-In . SVG Version: 6.00 Build 0)  -->
<svg version="1.1" id="Layer_1" xmlns="http://www.w3.org/2000/svg" xmlns:xlink="http://www.w3.org/1999/xlink" x="0px" y="0px"
	 viewBox="0 0 24 24" style="enable-background:new 0 0 24 24;" xml:space="preserve">
<style type="text/css">
	.st0{fill:#177E89;}
</style>
<path class="st0" d="M15.5,16.5l1.1-1.1l-3.8-3.8V7h-1.5v5.3L15.5,16.5z M12,21.5c-1.3,0-2.5-0.2-3.7-0.7c-1.2-0.5-2.2-1.2-3-2
	c-0.9-0.9-1.5-1.9-2-3c-0.5-1.2-0.7-2.4-0.7-3.7s0.2-2.5,0.7-3.7c0.5-1.2,1.2-2.2,2-3c0.9-0.9,1.9-1.5,3-2c1.2-0.5,2.4-0.7,3.7-0.7
	c1.3,0,2.5,0.2,3.7,0.7c1.2,0.5,2.2,1.2,3,2c0.9,0.9,1.5,1.9,2,3c0.5,1.2,0.7,2.4,0.7,3.7c0,1.3-0.2,2.5-0.7,3.7
	c-0.5,1.2-1.2,2.2-2,3c-0.9,0.9-1.9,1.5-3,2C14.6,21.3,13.3,21.5,12,21.5z M12,20c2.2,0,4.1-0.8,5.7-2.3c1.6-1.6,2.3-3.4,2.3-5.7
	c0-2.2-0.8-4.1-2.3-5.7C16.1,4.8,14.2,4,12,4C9.8,4,7.9,4.8,6.3,6.3C4.8,7.9,4,9.8,4,12c0,2.2,0.8,4.1,2.3,5.7
	C7.9,19.2,9.8,20,12,20z"/>
</svg>
