<?xml version="1.0" encoding="utf-8"?>
<!-- Generator: Adobe Illustrator 28.0.0, SVG Export Plug-In . SVG Version: 6.00 Build 0)  -->
<svg version="1.1" id="Layer_1" xmlns="http://www.w3.org/2000/svg" xmlns:xlink="http://www.w3.org/1999/xlink" x="0px" y="0px"
	 viewBox="0 0 24 24" style="enable-background:new 0 0 24 24;" xml:space="preserve">
<style type="text/css">
	.st0{fill:#177E89;}
</style>
<path class="st0" d="M11.5,11.9c0.5,0,0.9-0.2,1.3-0.5c0.4-0.4,0.5-0.8,0.5-1.3c0-0.5-0.2-0.9-0.5-1.3c-0.4-0.4-0.8-0.5-1.3-0.5
	c-0.5,0-0.9,0.2-1.3,0.5c-0.4,0.4-0.5,0.8-0.5,1.3c0,0.5,0.2,0.9,0.5,1.3C10.6,11.7,11.1,11.9,11.5,11.9z M11.5,19.5
	c2-1.8,3.5-3.4,4.5-5c1-1.6,1.6-3,1.6-4.2c0-1.8-0.6-3.3-1.7-4.5C14.7,4.6,13.3,4,11.5,4S8.4,4.6,7.2,5.8c-1.2,1.2-1.7,2.7-1.7,4.5
	c0,1.2,0.5,2.6,1.6,4.2C8.1,16.1,9.6,17.8,11.5,19.5z M11.5,21.5c-2.5-2.2-4.4-4.2-5.7-6.1C4.6,13.5,4,11.8,4,10.2
	c0-2.3,0.7-4.2,2.2-5.6c1.5-1.4,3.3-2.1,5.3-2.1s3.8,0.7,5.3,2.1c1.5,1.4,2.2,3.3,2.2,5.6c0,1.6-0.6,3.3-1.9,5.2
	C16,17.3,14.1,19.3,11.5,21.5z"/>
</svg>
