<?xml version="1.0" encoding="utf-8"?>
<!-- Generator: Adobe Illustrator 28.0.0, SVG Export Plug-In . SVG Version: 6.00 Build 0)  -->
<svg version="1.1" id="Layer_1" xmlns="http://www.w3.org/2000/svg" xmlns:xlink="http://www.w3.org/1999/xlink" x="0px" y="0px"
	 viewBox="0 0 24 24" style="enable-background:new 0 0 24 24;" xml:space="preserve">
<style type="text/css">
	.st0{fill:#177E89;}
</style>
<path class="st0" d="M11.1,20.5v-2.1c-0.9-0.2-1.6-0.5-2.2-1c-0.6-0.5-1.1-1.3-1.4-2.2l1.4-0.6c0.3,0.8,0.7,1.4,1.2,1.8
	c0.5,0.4,1.2,0.6,2,0.6c0.7,0,1.4-0.2,1.9-0.5c0.6-0.3,0.8-0.9,0.8-1.6c0-0.6-0.2-1.2-0.6-1.6c-0.4-0.4-1.3-0.8-2.6-1.2
	c-1.4-0.4-2.3-0.9-2.8-1.5C8.2,10,7.9,9.3,7.9,8.4c0-1,0.4-1.8,1.1-2.4c0.7-0.6,1.4-0.9,2.1-1V3h1.5v2.1c0.8,0.1,1.4,0.3,1.9,0.7
	c0.5,0.4,0.9,0.9,1.2,1.5L14.4,8c-0.2-0.5-0.5-0.9-0.9-1.1c-0.4-0.3-0.9-0.4-1.5-0.4c-0.8,0-1.4,0.2-1.8,0.6
	C9.7,7.4,9.4,7.8,9.4,8.4c0,0.6,0.2,1,0.7,1.4c0.5,0.3,1.3,0.7,2.6,1.1c1.2,0.4,2.1,0.9,2.6,1.5c0.6,0.7,0.9,1.5,0.9,2.4
	c0,1.1-0.4,1.9-1.1,2.5c-0.7,0.6-1.6,1-2.6,1.1v2.1H11.1z"/>
</svg>
