<?xml version="1.0" encoding="utf-8"?>
<!-- Generator: Adobe Illustrator 28.0.0, SVG Export Plug-In . SVG Version: 6.00 Build 0)  -->
<svg version="1.1" id="Layer_1" xmlns="http://www.w3.org/2000/svg" xmlns:xlink="http://www.w3.org/1999/xlink" x="0px" y="0px"
	 viewBox="0 0 30 40" style="enable-background:new 0 0 30 40;" xml:space="preserve">
<style type="text/css">
	.st0{fill:#177E89;}
</style>
<path class="st0" d="M16.8,39.1c-0.9,1.2-2.7,1.2-3.7,0C9.1,34.1,0,21.9,0,15.1C0,6.8,6.7,0,15,0s15,6.7,15,15
	C30,21.9,20.8,34.1,16.8,39.1z M15,10c-1.8,0-3.4,1-4.4,2.5c-0.9,1.6-0.9,3.5,0,5c0.9,1.6,2.6,2.5,4.4,2.5c1.7,0,3.4-0.9,4.3-2.5
	c0.9-1.5,0.9-3.4,0-5C18.3,11.1,16.7,10,15,10z"/>
</svg>
